<?xml version="1.0" standalone="no"?>
<!DOCTYPE svg PUBLIC "-//W3C//DTD SVG 20010904//EN"
 "http://www.w3.org/TR/2001/REC-SVG-20010904/DTD/svg10.dtd">
<svg version="1.0" xmlns="http://www.w3.org/2000/svg"
 width="300.000000pt" height="300.000000pt" viewBox="0 0 300.000000 300.000000"
 preserveAspectRatio="xMidYMid meet">
<metadata>
Created by potrace 1.14, written by Peter Selinger 2001-2017
</metadata>
<g transform="translate(0.000000,300.000000) scale(0.100000,-0.100000)"
fill="#000000" stroke="none">
<path d="M1478 2726 c-1 -2 -37 -6 -78 -10 -347 -29 -699 -240 -901 -539 -145
-216 -216 -441 -217 -691 -3 -513 328 -984 822 -1170 190 -72 407 -89 651 -51
66 10 215 58 292 95 345 164 609 488 688 844 13 61 16 102 11 175 -4 53 -8
125 -11 161 -2 36 -7 88 -10 115 -4 28 -8 57 -9 65 -7 48 -43 175 -68 234
-177 431 -594 736 -1043 762 -55 3 -105 7 -112 9 -6 2 -13 2 -15 1z m-8 -93
c0 -2 -77 -137 -171 -300 -94 -164 -224 -404 -288 -534 l-118 -236 -143 249
c-79 138 -152 260 -161 272 -17 22 -17 24 8 61 40 59 62 84 144 165 161 160
387 276 610 314 69 11 119 15 119 9z m322 -23 c248 -54 462 -188 648 -405 32
-38 90 -121 90 -130 0 -4 -26 -5 -57 -1 -54 5 -94 8 -288 21 -38 3 -252 8
-475 11 -223 3 -406 7 -407 8 -1 1 35 64 79 141 179 309 208 361 208 372 0 16
80 9 202 -17z m786 -608 c30 -55 77 -178 96 -252 23 -94 45 -263 35 -275 -7
-10 -45 -138 -54 -183 -13 -71 -101 -312 -113 -312 -4 0 -12 9 -17 20 -17 34
-164 289 -263 455 -76 127 -259 410 -341 526 -13 18 -11 19 45 19 90 1 263 9
324 14 30 3 93 8 140 12 47 3 86 7 87 8 1 1 11 2 21 3 12 1 26 -11 40 -35z
m-1924 -247 c162 -283 401 -665 462 -735 37 -44 37 -44 -292 -45 l-311 0 -23
50 c-33 72 -69 188 -86 275 -14 74 -21 290 -11 326 3 11 8 40 12 66 7 62 40
167 76 247 l29 65 61 -105 c33 -57 71 -122 83 -144z m1235 193 c44 -94 202
-412 227 -454 l24 -41 -83 -119 c-45 -65 -121 -181 -167 -256 l-85 -138 -80 6
c-44 3 -100 7 -125 10 -25 2 -112 7 -195 10 -138 6 -178 8 -212 12 -7 1 -13 6
-13 12 0 12 -156 332 -210 429 -56 103 -56 105 -17 159 44 60 213 316 249 376
l28 46 317 0 318 0 24 -52z m289 -566 c11 -28 276 -487 293 -508 12 -15 -82
-134 -168 -215 -175 -164 -431 -286 -639 -305 l-76 -7 15 29 c8 16 42 74 74
129 32 55 62 107 66 115 4 8 17 31 28 50 24 40 101 176 166 295 24 44 82 160
131 257 48 98 91 178 95 178 4 0 11 -8 15 -18z m-471 -598 c-141 -241 -215
-371 -230 -400 -15 -29 -20 -32 -54 -28 -262 24 -473 123 -678 316 -72 68
-172 185 -164 193 2 1 193 5 424 8 231 3 454 8 495 11 194 13 255 18 260 23 2
2 6 0 8 -5 1 -5 -26 -58 -61 -118z"/>
<path d="M1420 1856 c-78 -17 -127 -43 -186 -101 -77 -74 -113 -170 -110 -296
3 -167 107 -282 297 -330 157 -40 294 -14 372 70 91 99 136 299 99 436 -26 93
-109 171 -227 210 -60 21 -175 26 -245 11z m195 -88 c83 -20 143 -83 175 -182
31 -98 -4 -265 -70 -335 -92 -95 -344 -64 -433 53 -71 93 -79 222 -22 336 63
123 188 169 350 128z"/>
<path d="M1430 1618 c-46 -31 -72 -82 -74 -143 -2 -87 58 -138 165 -139 46 -1
62 4 92 27 64 48 79 149 33 219 -39 59 -154 78 -216 36z m104 -34 c21 -20 20
-60 0 -68 -37 -14 -84 50 -57 77 11 12 41 7 57 -9z"/>
</g>
</svg>
